<svg xmlns="http://www.w3.org/2000/svg" xmlns:xlink="http://www.w3.org/1999/xlink" width="500" zoomAndPan="magnify" viewBox="0 0 375 374.999991" height="500" preserveAspectRatio="xMidYMid meet" version="1.0"><defs><g/><clipPath id="84b61c3962"><path d="M 125 64.976562 L 253.144531 64.976562 L 253.144531 181.976562 L 125 181.976562 Z M 125 64.976562 " clip-rule="nonzero"/></clipPath></defs><rect x="-37.5" width="450" fill="#ffffff" y="-37.499999" height="449.999989" fill-opacity="1"/><g fill="#020407" fill-opacity="1"><g transform="translate(131.991529, 218.928194)"><g><path d="M 21.765625 -25.171875 C 22.910156 -24.367188 23.484375 -23.597656 23.484375 -22.859375 C 23.484375 -22.410156 23.21875 -21.789062 22.6875 -21 L 15.125 -9.6875 L 15.125 -3.015625 C 15.125 -2.472656 15.101562 -2.066406 15.0625 -1.796875 C 15.03125 -1.535156 14.921875 -1.226562 14.734375 -0.875 C 14.546875 -0.519531 14.226562 -0.273438 13.78125 -0.140625 C 13.34375 -0.00390625 12.75 0.0625 12 0.0625 C 11.257812 0.0625 10.664062 -0.00390625 10.21875 -0.140625 C 9.78125 -0.273438 9.46875 -0.523438 9.28125 -0.890625 C 9.09375 -1.253906 8.976562 -1.566406 8.9375 -1.828125 C 8.90625 -2.097656 8.890625 -2.515625 8.890625 -3.078125 L 8.890625 -9.6875 L 1.328125 -21 C 0.796875 -21.789062 0.53125 -22.410156 0.53125 -22.859375 C 0.53125 -23.597656 1.039062 -24.3125 2.0625 -25 C 3.09375 -25.695312 3.828125 -26.046875 4.265625 -26.046875 C 4.710938 -26.046875 5.0625 -25.953125 5.3125 -25.765625 C 5.71875 -25.503906 6.140625 -25.023438 6.578125 -24.328125 L 12 -15.640625 L 17.4375 -24.328125 C 17.875 -25.023438 18.253906 -25.484375 18.578125 -25.703125 C 18.910156 -25.929688 19.289062 -26.046875 19.71875 -26.046875 C 20.15625 -26.046875 20.835938 -25.753906 21.765625 -25.171875 Z M 21.765625 -25.171875 "/></g></g></g><g fill="#020407" fill-opacity="1"><g transform="translate(155.295944, 218.928194)"><g><path d="M 16.203125 -23.828125 L 25.65625 -4.3125 C 26.050781 -3.507812 26.25 -2.910156 26.25 -2.515625 C 26.25 -1.679688 25.570312 -0.925781 24.21875 -0.25 C 23.425781 0.144531 22.800781 0.34375 22.34375 0.34375 C 21.894531 0.34375 21.523438 0.238281 21.234375 0.03125 C 20.941406 -0.175781 20.726562 -0.394531 20.59375 -0.625 C 20.46875 -0.863281 20.289062 -1.21875 20.0625 -1.6875 L 18.234375 -5.453125 L 8.546875 -5.453125 L 6.71875 -1.6875 C 6.488281 -1.21875 6.304688 -0.875 6.171875 -0.65625 C 6.046875 -0.445312 5.835938 -0.234375 5.546875 -0.015625 C 5.253906 0.203125 4.878906 0.3125 4.421875 0.3125 C 3.972656 0.3125 3.351562 0.113281 2.5625 -0.28125 C 1.207031 -0.9375 0.53125 -1.679688 0.53125 -2.515625 C 0.53125 -2.910156 0.726562 -3.507812 1.125 -4.3125 L 10.5625 -23.875 C 10.820312 -24.40625 11.210938 -24.832031 11.734375 -25.15625 C 12.265625 -25.488281 12.820312 -25.65625 13.40625 -25.65625 C 14.664062 -25.65625 15.597656 -25.046875 16.203125 -23.828125 Z M 13.375 -15.4375 L 11.0625 -10.640625 L 15.71875 -10.640625 Z M 13.375 -15.4375 "/></g></g></g><g fill="#020407" fill-opacity="1"><g transform="translate(181.364737, 218.928194)"><g><path d="M 24.8125 -25.265625 C 26.1875 -24.585938 26.875 -23.84375 26.875 -23.03125 C 26.875 -22.65625 26.703125 -22.09375 26.359375 -21.34375 L 16.6875 -1.75 C 16.4375 -1.238281 16.046875 -0.820312 15.515625 -0.5 C 14.992188 -0.1875 14.453125 -0.03125 13.890625 -0.03125 L 13.546875 -0.03125 C 12.960938 -0.03125 12.40625 -0.1875 11.875 -0.5 C 11.351562 -0.820312 10.960938 -1.238281 10.703125 -1.75 L 1.046875 -21.34375 C 0.703125 -22.09375 0.53125 -22.65625 0.53125 -23.03125 C 0.53125 -23.84375 1.21875 -24.585938 2.59375 -25.265625 C 3.363281 -25.660156 3.953125 -25.859375 4.359375 -25.859375 C 4.765625 -25.859375 5.070312 -25.8125 5.28125 -25.71875 C 5.488281 -25.625 5.6875 -25.460938 5.875 -25.234375 C 6.082031 -24.953125 6.273438 -24.640625 6.453125 -24.296875 C 6.628906 -23.960938 7.078125 -22.992188 7.796875 -21.390625 C 8.523438 -19.796875 9.300781 -18.097656 10.125 -16.296875 C 10.957031 -14.503906 11.738281 -12.804688 12.46875 -11.203125 C 13.207031 -9.609375 13.625 -8.722656 13.71875 -8.546875 L 20.71875 -23.875 C 20.90625 -24.3125 21.066406 -24.660156 21.203125 -24.921875 C 21.628906 -25.546875 22.144531 -25.859375 22.75 -25.859375 C 23.351562 -25.859375 24.039062 -25.660156 24.8125 -25.265625 Z M 24.8125 -25.265625 "/></g></g></g><g fill="#020407" fill-opacity="1"><g transform="translate(208.063389, 218.928194)"><g><path d="M 16.203125 -23.828125 L 25.65625 -4.3125 C 26.050781 -3.507812 26.25 -2.910156 26.25 -2.515625 C 26.25 -1.679688 25.570312 -0.925781 24.21875 -0.25 C 23.425781 0.144531 22.800781 0.34375 22.34375 0.34375 C 21.894531 0.34375 21.523438 0.238281 21.234375 0.03125 C 20.941406 -0.175781 20.726562 -0.394531 20.59375 -0.625 C 20.46875 -0.863281 20.289062 -1.21875 20.0625 -1.6875 L 18.234375 -5.453125 L 8.546875 -5.453125 L 6.71875 -1.6875 C 6.488281 -1.21875 6.304688 -0.875 6.171875 -0.65625 C 6.046875 -0.445312 5.835938 -0.234375 5.546875 -0.015625 C 5.253906 0.203125 4.878906 0.3125 4.421875 0.3125 C 3.972656 0.3125 3.351562 0.113281 2.5625 -0.28125 C 1.207031 -0.9375 0.53125 -1.679688 0.53125 -2.515625 C 0.53125 -2.910156 0.726562 -3.507812 1.125 -4.3125 L 10.5625 -23.875 C 10.820312 -24.40625 11.210938 -24.832031 11.734375 -25.15625 C 12.265625 -25.488281 12.820312 -25.65625 13.40625 -25.65625 C 14.664062 -25.65625 15.597656 -25.046875 16.203125 -23.828125 Z M 13.375 -15.4375 L 11.0625 -10.640625 L 15.71875 -10.640625 Z M 13.375 -15.4375 "/></g></g></g><g fill="#020407" fill-opacity="1"><g transform="translate(234.143866, 218.928194)"><g/></g></g><g fill="#fc5c00" fill-opacity="1"><g transform="translate(93.483719, 251.928192)"><g><path d="M 18.375 -25.65625 C 18.914062 -25.65625 19.316406 -25.632812 19.578125 -25.59375 C 19.847656 -25.5625 20.148438 -25.453125 20.484375 -25.265625 C 20.828125 -25.078125 21.066406 -24.757812 21.203125 -24.3125 C 21.347656 -23.875 21.421875 -23.28125 21.421875 -22.53125 C 21.421875 -21.789062 21.347656 -21.195312 21.203125 -20.75 C 21.066406 -20.3125 20.820312 -20.003906 20.46875 -19.828125 C 20.125 -19.648438 19.816406 -19.539062 19.546875 -19.5 C 19.273438 -19.46875 18.863281 -19.453125 18.3125 -19.453125 L 7.59375 -19.453125 L 7.59375 -15.921875 L 14.484375 -15.921875 C 15.046875 -15.921875 15.460938 -15.898438 15.734375 -15.859375 C 16.003906 -15.828125 16.3125 -15.722656 16.65625 -15.546875 C 17.257812 -15.191406 17.5625 -14.269531 17.5625 -12.78125 C 17.5625 -11.144531 17.117188 -10.175781 16.234375 -9.875 C 15.867188 -9.75 15.273438 -9.6875 14.453125 -9.6875 L 7.59375 -9.6875 L 7.59375 -3.078125 C 7.59375 -2.515625 7.570312 -2.101562 7.53125 -1.84375 C 7.5 -1.59375 7.390625 -1.289062 7.203125 -0.9375 C 6.878906 -0.3125 5.972656 0 4.484375 0 C 2.847656 0 1.890625 -0.441406 1.609375 -1.328125 C 1.472656 -1.703125 1.40625 -2.296875 1.40625 -3.109375 L 1.40625 -22.578125 C 1.40625 -23.765625 1.625 -24.570312 2.0625 -25 C 2.507812 -25.4375 3.347656 -25.65625 4.578125 -25.65625 Z M 18.375 -25.65625 "/></g></g></g><g fill="#fc5c00" fill-opacity="1"><g transform="translate(115.073523, 251.928192)"><g><path d="M 0.875 -9.203125 C 0.875 -12.003906 1.851562 -14.3125 3.8125 -16.125 C 5.769531 -17.945312 8.007812 -18.859375 10.53125 -18.859375 C 13.050781 -18.859375 15.28125 -17.953125 17.21875 -16.140625 C 19.15625 -14.335938 20.125 -12.035156 20.125 -9.234375 C 20.125 -7.296875 19.617188 -5.570312 18.609375 -4.0625 C 17.609375 -2.5625 16.390625 -1.457031 14.953125 -0.75 C 13.523438 -0.0390625 12.039062 0.3125 10.5 0.3125 C 8.957031 0.3125 7.460938 -0.0625 6.015625 -0.8125 C 4.566406 -1.570312 3.347656 -2.691406 2.359375 -4.171875 C 1.367188 -5.660156 0.875 -7.335938 0.875 -9.203125 Z M 8.1875 -6.703125 C 8.9375 -6.128906 9.695312 -5.84375 10.46875 -5.84375 C 11.238281 -5.84375 12.007812 -6.132812 12.78125 -6.71875 C 13.550781 -7.300781 13.9375 -8.164062 13.9375 -9.3125 C 13.9375 -10.457031 13.570312 -11.304688 12.84375 -11.859375 C 12.125 -12.421875 11.34375 -12.703125 10.5 -12.703125 C 9.65625 -12.703125 8.867188 -12.410156 8.140625 -11.828125 C 7.421875 -11.242188 7.0625 -10.382812 7.0625 -9.25 C 7.0625 -8.125 7.4375 -7.273438 8.1875 -6.703125 Z M 8.1875 -6.703125 "/></g></g></g><g fill="#fc5c00" fill-opacity="1"><g transform="translate(135.368623, 251.928192)"><g><path d="M 9.59375 -0.0625 C 7.238281 -0.0625 5.285156 -0.953125 3.734375 -2.734375 C 2.179688 -4.523438 1.40625 -6.707031 1.40625 -9.28125 L 1.40625 -15.40625 C 1.40625 -15.957031 1.421875 -16.363281 1.453125 -16.625 C 1.484375 -16.882812 1.582031 -17.1875 1.75 -17.53125 C 2.070312 -18.164062 2.984375 -18.484375 4.484375 -18.484375 C 6.117188 -18.484375 7.070312 -18.039062 7.34375 -17.15625 C 7.488281 -16.78125 7.5625 -16.179688 7.5625 -15.359375 L 7.5625 -9.234375 C 7.5625 -8.285156 7.832031 -7.539062 8.375 -7 C 8.925781 -6.457031 9.660156 -6.1875 10.578125 -6.1875 C 11.503906 -6.1875 12.253906 -6.46875 12.828125 -7.03125 C 13.398438 -7.59375 13.6875 -8.328125 13.6875 -9.234375 L 13.6875 -15.4375 C 13.6875 -15.96875 13.703125 -16.367188 13.734375 -16.640625 C 13.773438 -16.910156 13.882812 -17.21875 14.0625 -17.5625 C 14.375 -18.175781 15.273438 -18.484375 16.765625 -18.484375 C 18.234375 -18.484375 19.128906 -18.164062 19.453125 -17.53125 C 19.617188 -17.1875 19.71875 -16.878906 19.75 -16.609375 C 19.789062 -16.335938 19.8125 -15.9375 19.8125 -15.40625 L 19.8125 -3.015625 C 19.8125 -2.492188 19.789062 -2.097656 19.75 -1.828125 C 19.71875 -1.566406 19.609375 -1.269531 19.421875 -0.9375 C 19.078125 -0.332031 18.179688 -0.03125 16.734375 -0.03125 C 15.304688 -0.03125 14.429688 -0.3125 14.109375 -0.875 C 13.867188 -1.269531 13.75 -1.75 13.75 -2.3125 C 13.65625 -2.144531 13.445312 -1.910156 13.125 -1.609375 C 12.800781 -1.304688 12.488281 -1.050781 12.1875 -0.84375 C 11.382812 -0.320312 10.519531 -0.0625 9.59375 -0.0625 Z M 9.59375 -0.0625 "/></g></g></g><g fill="#fc5c00" fill-opacity="1"><g transform="translate(155.873676, 251.928192)"><g><path d="M 11.65625 -18.4375 C 13.988281 -18.4375 15.929688 -17.546875 17.484375 -15.765625 C 19.035156 -13.984375 19.8125 -11.804688 19.8125 -9.234375 L 19.8125 -3.078125 C 19.8125 -2.546875 19.789062 -2.144531 19.75 -1.875 C 19.71875 -1.601562 19.617188 -1.304688 19.453125 -0.984375 C 19.128906 -0.347656 18.222656 -0.03125 16.734375 -0.03125 C 15.078125 -0.03125 14.117188 -0.460938 13.859375 -1.328125 C 13.722656 -1.722656 13.65625 -2.316406 13.65625 -3.109375 L 13.65625 -9.28125 C 13.65625 -10.226562 13.378906 -10.96875 12.828125 -11.5 C 12.273438 -12.039062 11.535156 -12.3125 10.609375 -12.3125 C 9.691406 -12.3125 8.945312 -12.03125 8.375 -11.46875 C 7.8125 -10.914062 7.53125 -10.1875 7.53125 -9.28125 L 7.53125 -3.078125 C 7.53125 -2.546875 7.507812 -2.144531 7.46875 -1.875 C 7.4375 -1.601562 7.328125 -1.304688 7.140625 -0.984375 C 6.835938 -0.347656 5.9375 -0.03125 4.4375 -0.03125 C 2.96875 -0.03125 2.070312 -0.347656 1.75 -0.984375 C 1.582031 -1.328125 1.484375 -1.632812 1.453125 -1.90625 C 1.421875 -2.175781 1.40625 -2.578125 1.40625 -3.109375 L 1.40625 -15.5 C 1.40625 -16.019531 1.421875 -16.410156 1.453125 -16.671875 C 1.484375 -16.941406 1.59375 -17.238281 1.78125 -17.5625 C 2.113281 -18.144531 3.015625 -18.4375 4.484375 -18.4375 C 5.898438 -18.4375 6.773438 -18.171875 7.109375 -17.640625 C 7.335938 -17.242188 7.453125 -16.765625 7.453125 -16.203125 C 7.546875 -16.367188 7.753906 -16.601562 8.078125 -16.90625 C 8.410156 -17.207031 8.726562 -17.453125 9.03125 -17.640625 C 9.820312 -18.171875 10.695312 -18.4375 11.65625 -18.4375 Z M 11.65625 -18.4375 "/></g></g></g><g fill="#fc5c00" fill-opacity="1"><g transform="translate(176.378729, 251.928192)"><g><path d="M 13.765625 -26.125 C 13.941406 -26.46875 14.25 -26.707031 14.6875 -26.84375 C 15.132812 -26.988281 15.722656 -27.0625 16.453125 -27.0625 C 17.191406 -27.0625 17.785156 -26.988281 18.234375 -26.84375 C 18.679688 -26.707031 18.988281 -26.460938 19.15625 -26.109375 C 19.332031 -25.753906 19.4375 -25.441406 19.46875 -25.171875 C 19.507812 -24.910156 19.53125 -24.507812 19.53125 -23.96875 L 19.53125 -3.078125 C 19.53125 -2.546875 19.507812 -2.144531 19.46875 -1.875 C 19.4375 -1.601562 19.328125 -1.304688 19.140625 -0.984375 C 18.796875 -0.347656 17.8125 -0.03125 16.1875 -0.03125 C 14.5625 -0.03125 13.65625 -0.601562 13.46875 -1.75 C 12.488281 -0.625 11.125 -0.0625 9.375 -0.0625 C 7.28125 -0.0625 5.367188 -0.976562 3.640625 -2.8125 C 1.910156 -4.644531 1.046875 -6.78125 1.046875 -9.21875 C 1.046875 -11.65625 1.914062 -13.796875 3.65625 -15.640625 C 5.394531 -17.484375 7.300781 -18.40625 9.375 -18.40625 C 11.101562 -18.40625 12.445312 -17.820312 13.40625 -16.65625 L 13.40625 -24.015625 C 13.40625 -24.546875 13.421875 -24.945312 13.453125 -25.21875 C 13.492188 -25.488281 13.597656 -25.789062 13.765625 -26.125 Z M 8.078125 -7.09375 C 8.691406 -6.46875 9.425781 -6.15625 10.28125 -6.15625 C 11.144531 -6.15625 11.863281 -6.46875 12.4375 -7.09375 C 13.007812 -7.726562 13.296875 -8.425781 13.296875 -9.1875 C 13.296875 -9.945312 13.019531 -10.648438 12.46875 -11.296875 C 11.925781 -11.953125 11.1875 -12.28125 10.25 -12.28125 C 9.320312 -12.28125 8.578125 -11.957031 8.015625 -11.3125 C 7.453125 -10.675781 7.171875 -9.972656 7.171875 -9.203125 C 7.171875 -8.429688 7.472656 -7.726562 8.078125 -7.09375 Z M 8.078125 -7.09375 "/></g></g></g><g fill="#fc5c00" fill-opacity="1"><g transform="translate(196.603837, 251.928192)"><g><path d="M 13.375 -16.484375 C 13.507812 -17.785156 14.429688 -18.4375 16.140625 -18.4375 C 17.046875 -18.4375 17.71875 -18.367188 18.15625 -18.234375 C 18.601562 -18.097656 18.914062 -17.851562 19.09375 -17.5 C 19.269531 -17.144531 19.375 -16.832031 19.40625 -16.5625 C 19.4375 -16.300781 19.453125 -15.898438 19.453125 -15.359375 L 19.453125 -3.109375 C 19.453125 -2.578125 19.4375 -2.175781 19.40625 -1.90625 C 19.375 -1.632812 19.273438 -1.328125 19.109375 -0.984375 C 18.785156 -0.367188 17.988281 -0.0625 16.71875 -0.0625 C 15.445312 -0.0625 14.59375 -0.21875 14.15625 -0.53125 C 13.726562 -0.851562 13.476562 -1.316406 13.40625 -1.921875 C 12.539062 -0.679688 11.097656 -0.0625 9.078125 -0.0625 C 7.066406 -0.0625 5.195312 -0.984375 3.46875 -2.828125 C 1.738281 -4.671875 0.875 -6.8125 0.875 -9.25 C 0.875 -11.695312 1.742188 -13.832031 3.484375 -15.65625 C 5.222656 -17.488281 7.128906 -18.40625 9.203125 -18.40625 C 9.992188 -18.40625 10.71875 -18.265625 11.375 -17.984375 C 12.03125 -17.703125 12.484375 -17.4375 12.734375 -17.1875 C 12.992188 -16.945312 13.207031 -16.710938 13.375 -16.484375 Z M 7 -9.203125 C 7 -8.429688 7.300781 -7.734375 7.90625 -7.109375 C 8.507812 -6.492188 9.242188 -6.1875 10.109375 -6.1875 C 10.972656 -6.1875 11.691406 -6.5 12.265625 -7.125 C 12.835938 -7.757812 13.125 -8.457031 13.125 -9.21875 C 13.125 -9.976562 12.847656 -10.679688 12.296875 -11.328125 C 11.753906 -11.984375 11.019531 -12.3125 10.09375 -12.3125 C 9.175781 -12.3125 8.429688 -11.984375 7.859375 -11.328125 C 7.285156 -10.679688 7 -9.972656 7 -9.203125 Z M 7 -9.203125 "/></g></g></g><g fill="#fc5c00" fill-opacity="1"><g transform="translate(216.758964, 251.928192)"><g><path d="M 12.109375 -12.25 L 9.828125 -12.390625 L 9.828125 -7.5625 C 9.828125 -6.925781 9.925781 -6.46875 10.125 -6.1875 C 10.332031 -5.914062 10.707031 -5.78125 11.25 -5.78125 C 11.800781 -5.78125 12.222656 -5.757812 12.515625 -5.71875 C 12.804688 -5.6875 13.113281 -5.578125 13.4375 -5.390625 C 13.976562 -5.085938 14.25 -4.304688 14.25 -3.046875 C 14.25 -1.578125 13.921875 -0.675781 13.265625 -0.34375 C 12.910156 -0.1875 12.597656 -0.0859375 12.328125 -0.046875 C 12.066406 -0.015625 11.679688 0 11.171875 0 C 8.742188 0 6.898438 -0.546875 5.640625 -1.640625 C 4.378906 -2.742188 3.75 -4.597656 3.75 -7.203125 L 3.75 -12.390625 C 3.300781 -12.316406 2.820312 -12.28125 2.3125 -12.28125 C 1.800781 -12.28125 1.375 -12.476562 1.03125 -12.875 C 0.695312 -13.269531 0.53125 -13.945312 0.53125 -14.90625 C 0.53125 -15.863281 0.585938 -16.554688 0.703125 -16.984375 C 0.816406 -17.421875 0.976562 -17.734375 1.1875 -17.921875 C 1.5625 -18.222656 2.03125 -18.375 2.59375 -18.375 L 3.75 -18.234375 L 3.75 -21.84375 C 3.75 -22.375 3.765625 -22.769531 3.796875 -23.03125 C 3.828125 -23.289062 3.9375 -23.570312 4.125 -23.875 C 4.425781 -24.457031 5.328125 -24.75 6.828125 -24.75 C 8.410156 -24.75 9.351562 -24.316406 9.65625 -23.453125 C 9.769531 -23.078125 9.828125 -22.484375 9.828125 -21.671875 L 9.828125 -18.234375 C 10.859375 -18.328125 11.632812 -18.375 12.15625 -18.375 C 12.6875 -18.375 13.082031 -18.351562 13.34375 -18.3125 C 13.613281 -18.28125 13.925781 -18.171875 14.28125 -17.984375 C 14.882812 -17.679688 15.1875 -16.785156 15.1875 -15.296875 C 15.1875 -13.828125 14.875 -12.925781 14.25 -12.59375 C 13.894531 -12.4375 13.582031 -12.335938 13.3125 -12.296875 C 13.050781 -12.265625 12.648438 -12.25 12.109375 -12.25 Z M 12.109375 -12.25 "/></g></g></g><g fill="#fc5c00" fill-opacity="1"><g transform="translate(231.770258, 251.928192)"><g><path d="M 1.40625 -15.359375 C 1.40625 -15.898438 1.421875 -16.300781 1.453125 -16.5625 C 1.484375 -16.832031 1.582031 -17.144531 1.75 -17.5 C 2.070312 -18.101562 2.984375 -18.40625 4.484375 -18.40625 C 5.597656 -18.40625 6.390625 -18.207031 6.859375 -17.8125 C 7.253906 -17.488281 7.460938 -16.988281 7.484375 -16.3125 C 7.515625 -16.070312 7.53125 -15.734375 7.53125 -15.296875 L 7.53125 -3.046875 C 7.53125 -2.503906 7.507812 -2.097656 7.46875 -1.828125 C 7.4375 -1.566406 7.328125 -1.257812 7.140625 -0.90625 C 6.835938 -0.300781 5.9375 0 4.4375 0 C 2.96875 0 2.070312 -0.3125 1.75 -0.9375 C 1.582031 -1.289062 1.484375 -1.59375 1.453125 -1.84375 C 1.421875 -2.101562 1.40625 -2.515625 1.40625 -3.078125 Z M 7.15625 -21.84375 C 6.976562 -21.507812 6.664062 -21.273438 6.21875 -21.140625 C 5.78125 -21.003906 5.191406 -20.9375 4.453125 -20.9375 C 3.722656 -20.9375 3.132812 -21.003906 2.6875 -21.140625 C 2.25 -21.273438 1.941406 -21.519531 1.765625 -21.875 C 1.585938 -22.226562 1.484375 -22.535156 1.453125 -22.796875 C 1.421875 -23.066406 1.40625 -23.46875 1.40625 -24 C 1.40625 -24.539062 1.421875 -24.945312 1.453125 -25.21875 C 1.484375 -25.488281 1.582031 -25.785156 1.75 -26.109375 C 2.070312 -26.742188 2.984375 -27.0625 4.484375 -27.0625 C 5.953125 -27.0625 6.835938 -26.742188 7.140625 -26.109375 C 7.328125 -25.753906 7.4375 -25.441406 7.46875 -25.171875 C 7.507812 -24.910156 7.53125 -24.507812 7.53125 -23.96875 C 7.53125 -23.4375 7.507812 -23.035156 7.46875 -22.765625 C 7.4375 -22.492188 7.332031 -22.1875 7.15625 -21.84375 Z M 7.15625 -21.84375 "/></g></g></g><g fill="#fc5c00" fill-opacity="1"><g transform="translate(239.993078, 251.928192)"><g><path d="M 0.875 -9.203125 C 0.875 -12.003906 1.851562 -14.3125 3.8125 -16.125 C 5.769531 -17.945312 8.007812 -18.859375 10.53125 -18.859375 C 13.050781 -18.859375 15.28125 -17.953125 17.21875 -16.140625 C 19.15625 -14.335938 20.125 -12.035156 20.125 -9.234375 C 20.125 -7.296875 19.617188 -5.570312 18.609375 -4.0625 C 17.609375 -2.5625 16.390625 -1.457031 14.953125 -0.75 C 13.523438 -0.0390625 12.039062 0.3125 10.5 0.3125 C 8.957031 0.3125 7.460938 -0.0625 6.015625 -0.8125 C 4.566406 -1.570312 3.347656 -2.691406 2.359375 -4.171875 C 1.367188 -5.660156 0.875 -7.335938 0.875 -9.203125 Z M 8.1875 -6.703125 C 8.9375 -6.128906 9.695312 -5.84375 10.46875 -5.84375 C 11.238281 -5.84375 12.007812 -6.132812 12.78125 -6.71875 C 13.550781 -7.300781 13.9375 -8.164062 13.9375 -9.3125 C 13.9375 -10.457031 13.570312 -11.304688 12.84375 -11.859375 C 12.125 -12.421875 11.34375 -12.703125 10.5 -12.703125 C 9.65625 -12.703125 8.867188 -12.410156 8.140625 -11.828125 C 7.421875 -11.242188 7.0625 -10.382812 7.0625 -9.25 C 7.0625 -8.125 7.4375 -7.273438 8.1875 -6.703125 Z M 8.1875 -6.703125 "/></g></g></g><g fill="#fc5c00" fill-opacity="1"><g transform="translate(260.288178, 251.928192)"><g><path d="M 11.65625 -18.4375 C 13.988281 -18.4375 15.929688 -17.546875 17.484375 -15.765625 C 19.035156 -13.984375 19.8125 -11.804688 19.8125 -9.234375 L 19.8125 -3.078125 C 19.8125 -2.546875 19.789062 -2.144531 19.75 -1.875 C 19.71875 -1.601562 19.617188 -1.304688 19.453125 -0.984375 C 19.128906 -0.347656 18.222656 -0.03125 16.734375 -0.03125 C 15.078125 -0.03125 14.117188 -0.460938 13.859375 -1.328125 C 13.722656 -1.722656 13.65625 -2.316406 13.65625 -3.109375 L 13.65625 -9.28125 C 13.65625 -10.226562 13.378906 -10.96875 12.828125 -11.5 C 12.273438 -12.039062 11.535156 -12.3125 10.609375 -12.3125 C 9.691406 -12.3125 8.945312 -12.03125 8.375 -11.46875 C 7.8125 -10.914062 7.53125 -10.1875 7.53125 -9.28125 L 7.53125 -3.078125 C 7.53125 -2.546875 7.507812 -2.144531 7.46875 -1.875 C 7.4375 -1.601562 7.328125 -1.304688 7.140625 -0.984375 C 6.835938 -0.347656 5.9375 -0.03125 4.4375 -0.03125 C 2.96875 -0.03125 2.070312 -0.347656 1.75 -0.984375 C 1.582031 -1.328125 1.484375 -1.632812 1.453125 -1.90625 C 1.421875 -2.175781 1.40625 -2.578125 1.40625 -3.109375 L 1.40625 -15.5 C 1.40625 -16.019531 1.421875 -16.410156 1.453125 -16.671875 C 1.484375 -16.941406 1.59375 -17.238281 1.78125 -17.5625 C 2.113281 -18.144531 3.015625 -18.4375 4.484375 -18.4375 C 5.898438 -18.4375 6.773438 -18.171875 7.109375 -17.640625 C 7.335938 -17.242188 7.453125 -16.765625 7.453125 -16.203125 C 7.546875 -16.367188 7.753906 -16.601562 8.078125 -16.90625 C 8.410156 -17.207031 8.726562 -17.453125 9.03125 -17.640625 C 9.820312 -18.171875 10.695312 -18.4375 11.65625 -18.4375 Z M 11.65625 -18.4375 "/></g></g></g><g clip-path="url(#84b61c3962)"><path fill="#fc5c00" d="M 167.054688 159.484375 L 219.871094 106.660156 C 221 105.53125 221.621094 104.027344 221.621094 102.433594 C 221.621094 100.835938 221 99.335938 219.875 98.207031 C 218.742188 97.078125 217.242188 96.457031 215.644531 96.457031 C 214.042969 96.457031 212.539062 97.078125 211.414062 98.203125 L 189.308594 120.308594 L 167.203125 98.203125 C 166.074219 97.078125 164.574219 96.460938 162.980469 96.460938 C 161.378906 96.460938 159.875 97.078125 158.75 98.203125 C 157.230469 99.722656 157.003906 101.507812 157.003906 102.433594 C 157.003906 103.359375 157.230469 105.140625 158.75 106.660156 L 180.851562 128.765625 L 158.597656 151.027344 L 136.492188 128.917969 C 121.890625 114.3125 121.890625 90.550781 136.492188 75.945312 C 143.566406 68.875 152.96875 64.980469 162.980469 64.980469 C 171.996094 64.980469 180.695312 68.21875 187.472656 74.09375 L 189.308594 75.6875 L 191.144531 74.09375 C 197.925781 68.21875 206.628906 64.980469 215.644531 64.980469 C 225.648438 64.980469 235.054688 68.875 242.128906 75.945312 C 249.191406 83.007812 253.082031 92.414062 253.082031 102.433594 C 253.082031 112.449219 249.191406 121.855469 242.128906 128.917969 L 189.3125 181.738281 Z M 215.644531 87.230469 C 217.996094 87.230469 222.519531 87.808594 226.398438 91.679688 C 230.269531 95.558594 230.847656 100.082031 230.847656 102.433594 C 230.847656 104.78125 230.269531 109.304688 226.398438 113.183594 L 192.570312 147.011719 L 180.105469 159.480469 L 189.3125 168.691406 L 235.605469 122.394531 C 240.9375 117.0625 243.871094 109.972656 243.871094 102.433594 C 243.871094 94.890625 240.9375 87.804688 235.605469 82.472656 C 230.273438 77.144531 223.183594 74.207031 215.644531 74.207031 C 208.101562 74.207031 201.011719 77.144531 195.679688 82.472656 L 189.308594 88.84375 L 182.9375 82.472656 C 177.609375 77.144531 170.519531 74.207031 162.980469 74.207031 C 155.433594 74.207031 148.347656 77.144531 143.019531 82.472656 C 132.011719 93.476562 132.011719 111.386719 143.019531 122.394531 L 158.597656 137.972656 L 167.800781 128.765625 L 152.226562 113.1875 C 149.355469 110.316406 147.777344 106.5 147.777344 102.433594 C 147.777344 98.367188 149.355469 94.546875 152.226562 91.679688 C 156.097656 87.808594 160.625 87.230469 162.980469 87.230469 C 165.328125 87.230469 169.851562 87.808594 173.726562 91.675781 L 189.308594 107.261719 L 204.890625 91.679688 C 208.757812 87.808594 213.289062 87.230469 215.644531 87.230469 Z M 215.644531 87.230469 " fill-opacity="1" fill-rule="nonzero"/></g></svg>